<svg width="30" height="30" viewBox="0 0 30 30" fill="none" xmlns="http://www.w3.org/2000/svg">
<path fill-rule="evenodd" clip-rule="evenodd" d="M10.5 25.5C9 25.5 4.5 21 4.5 19.5C4.5 19.0005 4.9995 18 6 16.5L0 15L3 10.5L9 12C15 3 24 0 30 0C30 6 27 15 18 21L19.5 27L15 30L13.5 24C12 25.0005 10.9995 25.5 10.5 25.5ZM20.25 12C20.8467 12 21.419 11.7629 21.841 11.341C22.2629 10.919 22.5 10.3467 22.5 9.75C22.5 9.15326 22.2629 8.58097 21.841 8.15901C21.419 7.73705 20.8467 7.5 20.25 7.5C19.6533 7.5 19.081 7.73705 18.659 8.15901C18.2371 8.58097 18 9.15326 18 9.75C18 10.3467 18.2371 10.919 18.659 11.341C19.081 11.7629 19.6533 12 20.25 12V12ZM3 21L4.5 23.25C3.4995 24.2505 3 25.5 3 27C4.5 27 5.7495 26.5005 6.75 25.5L9 27C7.0005 28.9995 4.0005 30 0 30C0 25.9995 1.0005 22.9995 3 21Z" fill="white"/>
</svg>
