<svg width="22" height="24" viewBox="0 0 22 24" fill="none" xmlns="http://www.w3.org/2000/svg">
<path d="M8.35819 0C8.55971 0 8.75298 0.080054 8.89547 0.222551C9.03797 0.365048 9.11802 0.558314 9.11802 0.759835V3.79918C9.11802 4.0007 9.03797 4.19396 8.89547 4.33646C8.75298 4.47896 8.55971 4.55901 8.35819 4.55901C8.15667 4.55901 7.9634 4.47896 7.8209 4.33646C7.67841 4.19396 7.59835 4.0007 7.59835 3.79918V0.759835C7.59835 0.558314 7.67841 0.365048 7.8209 0.222551C7.9634 0.080054 8.15667 0 8.35819 0V0ZM2.44667 2.44667C2.51725 2.37591 2.6011 2.31977 2.69341 2.28146C2.78573 2.24316 2.88469 2.22344 2.98463 2.22344C3.08458 2.22344 3.18354 2.24316 3.27585 2.28146C3.36817 2.31977 3.45201 2.37591 3.5226 2.44667L5.67141 4.597C5.74398 4.6671 5.80187 4.75094 5.84169 4.84364C5.88151 4.93635 5.90247 5.03605 5.90335 5.13694C5.90423 5.23783 5.885 5.33789 5.8468 5.43127C5.80859 5.52465 5.75217 5.60949 5.68083 5.68083C5.60949 5.75217 5.52465 5.80859 5.43127 5.8468C5.33789 5.885 5.23783 5.90423 5.13694 5.90335C5.03605 5.90247 4.93635 5.88151 4.84364 5.84169C4.75094 5.80187 4.6671 5.74398 4.597 5.67141L2.44819 3.5226C2.30574 3.38011 2.22572 3.18687 2.22572 2.98539C2.22572 2.78391 2.30574 2.59068 2.44819 2.44819L2.44667 2.44667ZM14.2697 2.44667C14.3405 2.51725 14.3966 2.6011 14.4349 2.69341C14.4732 2.78573 14.4929 2.88469 14.4929 2.98463C14.4929 3.08458 14.4732 3.18354 14.4349 3.27585C14.3966 3.36817 14.3405 3.45201 14.2697 3.5226L12.1179 5.67141C12.0478 5.74398 11.9639 5.80187 11.8712 5.84169C11.7785 5.88151 11.6788 5.90247 11.5779 5.90335C11.477 5.90423 11.377 5.885 11.2836 5.8468C11.1902 5.80859 11.1054 5.75217 11.034 5.68083C10.9627 5.60949 10.9063 5.52465 10.8681 5.43127C10.8299 5.33789 10.8106 5.23783 10.8115 5.13694C10.8124 5.03605 10.8333 4.93635 10.8732 4.84364C10.913 4.75094 10.9709 4.6671 11.0434 4.597L13.1923 2.44819C13.3348 2.30574 13.528 2.22572 13.7295 2.22572C13.9309 2.22572 14.1242 2.30574 14.2667 2.44819L14.2697 2.44667ZM0 8.35819C0 8.15667 0.080054 7.9634 0.222551 7.8209C0.365048 7.67841 0.558314 7.59835 0.759835 7.59835H3.79918C4.0007 7.59835 4.19396 7.67841 4.33646 7.8209C4.47896 7.9634 4.55901 8.15667 4.55901 8.35819C4.55901 8.55971 4.47896 8.75298 4.33646 8.89547C4.19396 9.03797 4.0007 9.11802 3.79918 9.11802H0.759835C0.558314 9.11802 0.365048 9.03797 0.222551 8.89547C0.080054 8.75298 0 8.55971 0 8.35819ZM8.35819 9.16665V23.2388C8.35792 23.3893 8.40234 23.5365 8.48581 23.6617C8.56928 23.7869 8.68805 23.8845 8.82706 23.9421C8.96607 23.9997 9.11906 24.0148 9.26663 23.9853C9.41421 23.9559 9.54972 23.8833 9.65599 23.7768L13.5463 19.8864C14.1162 19.3164 14.8891 18.9961 15.6952 18.9959H20.6067C20.7645 18.9958 20.9182 18.9466 21.0467 18.8551C21.1752 18.7636 21.2721 18.6345 21.3239 18.4855C21.3757 18.3365 21.3798 18.1751 21.3357 18.0237C21.2916 17.8722 21.2015 17.7382 21.0778 17.6403L9.58912 8.56942C9.47706 8.48087 9.3423 8.42569 9.20031 8.41022C9.05832 8.39476 8.91485 8.41962 8.78634 8.48197C8.65784 8.54432 8.54951 8.64162 8.47378 8.76273C8.39805 8.88383 8.35799 9.02382 8.35819 9.16665Z" fill="#4F4F4F"/>
</svg>
