<svg width="33" height="30" viewBox="0 0 33 30" fill="none" xmlns="http://www.w3.org/2000/svg">
<path d="M20.4 0C19.7635 0 19.153 0.252856 18.7029 0.702944C18.2529 1.15303 18 1.76348 18 2.4V7.2C18 7.83652 18.2529 8.44697 18.7029 8.89706C19.153 9.34714 19.7635 9.6 20.4 9.6V13.2L24.72 9.6H30C30.6365 9.6 31.247 9.34714 31.6971 8.89706C32.1471 8.44697 32.4 7.83652 32.4 7.2V2.4C32.4 1.76348 32.1471 1.15303 31.6971 0.702944C31.247 0.252856 30.6365 0 30 0H20.4ZM9.6 6C8.32696 6 7.10606 6.50571 6.20589 7.40589C5.30571 8.30606 4.8 9.52696 4.8 10.8C4.8 12.073 5.30571 13.2939 6.20589 14.1941C7.10606 15.0943 8.32696 15.6 9.6 15.6C10.873 15.6 12.0939 15.0943 12.9941 14.1941C13.8943 13.2939 14.4 12.073 14.4 10.8C14.4 9.52696 13.8943 8.30606 12.9941 7.40589C12.0939 6.50571 10.873 6 9.6 6V6ZM15.6 18H3.6C2.64522 18 1.72955 18.3793 1.05442 19.0544C0.379285 19.7295 0 20.6452 0 21.6C0 24.2784 1.1016 26.424 2.9088 27.876C4.6872 29.304 7.0728 30 9.6 30C12.1272 30 14.5128 29.304 16.2912 27.876C18.096 26.424 19.2 24.2784 19.2 21.6C19.2 20.6452 18.8207 19.7295 18.1456 19.0544C17.4705 18.3793 16.5548 18 15.6 18V18Z" fill="#4F4F4F"/>
</svg>
